<?xml version="1.0" standalone="no"?>
<!DOCTYPE svg PUBLIC "-//W3C//DTD SVG 20010904//EN"
 "http://www.w3.org/TR/2001/REC-SVG-20010904/DTD/svg10.dtd">
<svg version="1.0" xmlns="http://www.w3.org/2000/svg"
 width="600.000000pt" height="600.000000pt" viewBox="0 0 600.000000 600.000000"
 preserveAspectRatio="xMidYMid meet">
<metadata>
Created by potrace 1.14, written by Peter Selinger 2001-2017
</metadata>
<g transform="translate(0.000000,600.000000) scale(0.100000,-0.100000)"
fill="#000000" stroke="none">
<path d="M1211 3237 c-266 -688 -486 -1255 -490 -1259 -3 -4 -37 -12 -76 -17
-38 -6 -85 -13 -102 -16 l-33 -6 0 -119 0 -120 400 0 401 0 -3 122 -3 122
-100 18 c-55 9 -101 17 -101 17 -1 1 112 310 162 444 l26 67 557 0 557 0 91
-252 c60 -169 87 -255 79 -259 -6 -3 -47 -12 -90 -19 -44 -6 -86 -14 -93 -17
-10 -4 -13 -35 -13 -124 l0 -119 400 0 400 0 0 119 c0 137 12 123 -120 141
l-85 12 -445 1171 c-244 645 -460 1211 -478 1260 l-34 87 -162 0 -161 0 -484
-1253z m864 166 l213 -588 -436 -3 c-239 -1 -436 -1 -438 1 -3 2 403 1112 426
1166 6 13 13 21 17 18 3 -4 101 -271 218 -594z"/>
<path d="M4125 3799 c-171 -23 -342 -83 -463 -163 l-77 -51 0 -240 0 -240 145
0 145 0 20 144 20 145 45 28 c172 109 479 117 627 18 123 -82 163 -182 163
-405 l0 -112 -272 -6 c-185 -3 -302 -10 -363 -21 -283 -51 -483 -174 -578
-354 -50 -95 -67 -168 -67 -288 0 -299 151 -502 426 -571 50 -12 111 -17 219
-17 143 -1 154 1 237 30 115 41 225 111 319 203 l77 76 16 -121 c8 -67 18
-128 22 -138 5 -14 35 -16 275 -16 l269 0 0 119 c0 137 11 124 -122 136 l-77
7 -3 642 c-4 620 -5 644 -26 719 -49 178 -157 308 -322 390 -136 67 -230 87
-425 92 -88 2 -191 0 -230 -6z m623 -1329 l2 -184 -36 -53 c-64 -92 -170 -168
-306 -219 -57 -21 -96 -28 -183 -32 -195 -8 -293 31 -348 138 -26 50 -28 63
-25 145 3 104 23 154 90 229 52 60 108 98 183 125 87 32 165 39 405 37 l215
-1 3 -185z"/>
</g>
</svg>
